<svg id="boxes" xmlns="http://www.w3.org/2000/svg" width="21.124" height="21.123" viewBox="0 0 21.124 21.123">
  <path id="Subtraction_59" data-name="Subtraction 59" d="M-5064.527-8797.877H-5067a.412.412,0,0,1-.412-.412v-2.062h-4.374v2.063a.413.413,0,0,1-.414.412h-2.475a.413.413,0,0,1-.414-.412v-2.062h-4.25v2.063a.412.412,0,0,1-.412.412h-2.477a.412.412,0,0,1-.412-.412v-2.062h-.949a.412.412,0,0,1-.412-.411v-17.826a.412.412,0,0,1,.412-.411h8.913a.412.412,0,0,1,.412.411v8.5h8.5a.413.413,0,0,1,.414.412v8.5h2.063a.413.413,0,0,1,.412.414.412.412,0,0,1-.412.411h-.825v2.063A.413.413,0,0,1-5064.527-8797.877Zm-2.063-2.475v1.651h1.651v-1.651Zm-7.673,0v1.651h1.651v-1.651Zm-7.549,0v1.651h1.649v-1.651Zm-1.361-8.91v8.085h8.085v-8.085h-1.772v3.424a.413.413,0,0,1-.414.411h-3.711a.413.413,0,0,1-.414-.411v-3.424Zm12.334,4.249a.412.412,0,0,0-.412.412.413.413,0,0,0,.412.414h2.477a.413.413,0,0,0,.412-.414.412.412,0,0,0-.412-.412Zm-9.736-4.249v3.01h2.888v-3.01Zm9.736,1.772a.412.412,0,0,0-.412.412.413.413,0,0,0,.412.413h2.477a.413.413,0,0,0,.412-.413.412.412,0,0,0-.412-.412Zm-10.15-6.434a.411.411,0,0,0-.412.409.414.414,0,0,0,.412.416h2.477a.414.414,0,0,0,.412-.416.411.411,0,0,0-.412-.409Zm0-2.477a.412.412,0,0,0-.412.411.413.413,0,0,0,.412.414h2.477a.413.413,0,0,0,.412-.414.412.412,0,0,0-.412-.411Z" transform="translate(5084 8819)" fill="#236fb4"/>
  <circle id="Ellipse_359" data-name="Ellipse 359" cx="0.5" cy="0.5" r="0.5" transform="translate(13 9)" fill="#236fb4"/>
</svg>
