<svg id="avatar" xmlns="http://www.w3.org/2000/svg" width="20.34" height="23.028" viewBox="0 0 15.718 17.985">
  <g id="Group_866" data-name="Group 866">
    <path id="Path_226" data-name="Path 226" d="M140.619,8.969h.11a3.181,3.181,0,0,0,2.43-1.051c1.327-1.5,1.107-4.061,1.082-4.305A3.517,3.517,0,0,0,142.57.486,3.833,3.833,0,0,0,140.716,0h-.059A3.839,3.839,0,0,0,138.8.472a3.519,3.519,0,0,0-1.693,3.14c-.024.245-.245,2.809,1.082,4.305A3.168,3.168,0,0,0,140.619,8.969Z" transform="translate(-132.821)" fill="#236fb4"/>
    <path id="Path_227" data-name="Path 227" d="M51.789,264v-.011c0-.031,0-.061,0-.1-.023-.758-.073-2.529-1.733-3.1l-.038-.011a11.042,11.042,0,0,1-3.176-1.446.563.563,0,0,0-.719.126c-.712.639-3.471.918-4.374,0a.558.558,0,0,0-.719-.126,10.92,10.92,0,0,1-3.176,1.446l-.038.011c-1.661.57-1.71,2.342-1.733,3.1a.767.767,0,0,1,0,.1V264a5.868,5.868,0,0,0,.2,1.733.491.491,0,0,0,.2.241,14.473,14.473,0,0,0,7.469,1.829,14.517,14.517,0,0,0,7.469-1.829.512.512,0,0,0,.2-.241A6.157,6.157,0,0,0,51.789,264Z" transform="translate(-36.073 -249.82)" fill="#236fb4"/>
  </g>
</svg>
