<svg xmlns="http://www.w3.org/2000/svg" width="17.704" height="19.792" viewBox="0 0 17.704 19.792">
  <path id="Subtraction_53" data-name="Subtraction 53" d="M15.693,19.793H2.01A2.012,2.012,0,0,1,0,17.783V.4A.39.39,0,0,1,.114.112a.387.387,0,0,1,.545,0l1.094,1.1,1.1-1.1a.387.387,0,0,1,.547,0L4.49,1.21l1.1-1.1a.386.386,0,0,1,.546,0l1.1,1.1,1.1-1.1a.386.386,0,0,1,.546,0l1.1,1.1,1.1-1.1a.386.386,0,0,1,.546,0l1.1,1.1,1.1-1.1a.385.385,0,0,1,.421-.084.385.385,0,0,1,.239.357V9.51h2.861A.387.387,0,0,1,17.7,9.9v7.886A2.012,2.012,0,0,1,15.693,19.793Zm-1.238-9.509v7.5a1.237,1.237,0,0,0,2.474,0v-7.5ZM5.183,15.541a.387.387,0,1,0,0,.773h6.124a.387.387,0,1,0,0-.773Zm-2.034,0a.387.387,0,1,0,.273.113A.39.39,0,0,0,3.149,15.541Zm2.034-2.551a.387.387,0,1,0,0,.773h6.124a.387.387,0,1,0,0-.773Zm-2.034,0a.387.387,0,1,0,.273.113A.39.39,0,0,0,3.149,12.991Zm2.034-2.552a.387.387,0,1,0,0,.773h6.124a.387.387,0,1,0,0-.773Zm-2.034,0a.387.387,0,1,0,.273.113A.39.39,0,0,0,3.149,10.439Zm10.2-3.562h0l.036.317.11.987c.1.858.192,1.715.192,1.715-.169-1.515-.272-2.435-.327-2.936Zm-7.2.247a.387.387,0,0,0-.387.386A1.393,1.393,0,0,0,6.842,8.832v.315a.387.387,0,1,0,.773,0V8.832A1.392,1.392,0,0,0,8.7,7.511,1.423,1.423,0,0,0,7.228,6.142a.652.652,0,0,1-.7-.595.652.652,0,0,1,.7-.6.652.652,0,0,1,.7.6.387.387,0,0,0,.773,0A1.393,1.393,0,0,0,7.615,4.226V3.965a.387.387,0,1,0-.773,0v.261A1.392,1.392,0,0,0,5.759,5.547,1.423,1.423,0,0,0,7.228,6.915a.652.652,0,0,1,.7.6.652.652,0,0,1-.7.6.652.652,0,0,1-.7-.6A.387.387,0,0,0,6.146,7.124Zm4.212-.983a.387.387,0,1,0,0,.773h.753a.387.387,0,0,0,0-.773Zm-7.014,0a.387.387,0,1,0,0,.773H4.1a.387.387,0,0,0,0-.773Z" transform="translate(0.001 -0.001)" fill="#236fb4"/>
</svg>
