<svg xmlns="http://www.w3.org/2000/svg" width="29.677" height="25" viewBox="0 0 29.677 25">
  <path id="Union_66" data-name="Union 66" d="M6442.659-9744.5a2.5,2.5,0,0,1,2.5-2.5,2.5,2.5,0,0,1,2.5,2.5,2.5,2.5,0,0,1-2.5,2.5A2.5,2.5,0,0,1,6442.659-9744.5Zm-9,0a2.5,2.5,0,0,1,2.5-2.5,2.5,2.5,0,0,1,2.5,2.5,2.5,2.5,0,0,1-2.5,2.5A2.5,2.5,0,0,1,6433.661-9744.5Zm-.022-3.743a1.542,1.542,0,0,1-1.488-1.145l-3.9-14.614H6424.5a1.5,1.5,0,0,1-1.5-1.5,1.5,1.5,0,0,1,1.5-1.5h5a1.5,1.5,0,0,1,1.484,1.281c.012.033.022.066.031.1l1.338,5.027h18.781a1.538,1.538,0,0,1,1.2.576,1.54,1.54,0,0,1,.3,1.3l-2.054,9.261a1.542,1.542,0,0,1-1.507,1.208Zm1.187-3.086h13.013l1.37-6.175H6433.18Z" transform="translate(-6423 9767)" fill="#fff"/>
</svg>
