<svg xmlns="http://www.w3.org/2000/svg" width="20.34" height="23.028" viewBox="0 0 11.833 17.018">
  <path id="Path_44" data-name="Path 44" d="M6136.193,18.307h-.536V15.956A3.917,3.917,0,0,0,6131.789,12a3.86,3.86,0,0,0-3.676,2.728,2.607,2.607,0,0,0-.14.781c-.014.329,0,3.276,0,3.276s1.179.985,1.192.656c0-.134,0-4.05-.016-3.165a5.713,5.713,0,0,1,.1-1.171,2.665,2.665,0,0,1,5.22.851v2.351h-6.842A1.632,1.632,0,0,0,6126,19.939v7.448a1.632,1.632,0,0,0,1.632,1.632h8.569a1.632,1.632,0,0,0,1.632-1.632V19.948a1.629,1.629,0,0,0-1.64-1.64Zm-2.861,6.114a1.4,1.4,0,0,1-.676.675,1.623,1.623,0,0,1-2.183-2.184,1.4,1.4,0,0,1,.676-.675A1.624,1.624,0,0,1,6133.333,24.422Z" transform="translate(-6126 -12)" fill="#2668c2"/>
</svg>
