<svg xmlns="http://www.w3.org/2000/svg" width="19.991" height="24.136" viewBox="0 0 19.991 24.136">
  <g id="document_1_" data-name="document(1)" transform="translate(-43.968)">
    <g id="Group_10213" data-name="Group 10213" transform="translate(51.559 5.092)">
      <g id="Group_10212" data-name="Group 10212" transform="translate(0)">
        <path id="Path_36855" data-name="Path 36855" d="M212.625,108.016h-6.69a.943.943,0,1,0,0,1.886h6.69a.943.943,0,1,0,0-1.886Z" transform="translate(-204.992 -108.016)" fill="#236fb4"/>
      </g>
    </g>
    <g id="Group_10215" data-name="Group 10215" transform="translate(51.559 8.864)">
      <g id="Group_10214" data-name="Group 10214" transform="translate(0)">
        <path id="Path_36856" data-name="Path 36856" d="M212.625,188.027h-6.69a.943.943,0,1,0,0,1.886h6.69a.943.943,0,1,0,0-1.886Z" transform="translate(-204.992 -188.027)" fill="#236fb4"/>
      </g>
    </g>
    <g id="Group_10217" data-name="Group 10217" transform="translate(51.559 12.636)">
      <g id="Group_10216" data-name="Group 10216" transform="translate(0)">
        <path id="Path_36857" data-name="Path 36857" d="M208.811,268.039h-2.876a.943.943,0,1,0,0,1.886h2.876a.943.943,0,0,0,0-1.886Z" transform="translate(-204.992 -268.039)" fill="#236fb4"/>
      </g>
    </g>
    <g id="Group_10219" data-name="Group 10219" transform="translate(43.968)">
      <g id="Group_10218" data-name="Group 10218">
        <path id="Path_36858" data-name="Path 36858" d="M63.016,12.824a.943.943,0,0,0,.943-.943V3.772A3.776,3.776,0,0,0,60.187,0H51.512A3.776,3.776,0,0,0,47.74,3.768,3.776,3.776,0,0,0,43.968,7.54V20.364a3.776,3.776,0,0,0,3.772,3.772h9.147a3.776,3.776,0,0,0,3.772-3.772v-.029a3.778,3.778,0,0,0,3.3-3.742.943.943,0,0,0-1.886,0,1.888,1.888,0,0,1-1.885,1.886l-8.675,0h0A1.886,1.886,0,0,1,49.626,16.6V3.772a1.888,1.888,0,0,1,1.886-1.886h8.675a1.888,1.888,0,0,1,1.886,1.886v8.109A.943.943,0,0,0,63.016,12.824Zm-11.5,7.543h0l7.26,0a1.888,1.888,0,0,1-1.886,1.885H47.74a1.888,1.888,0,0,1-1.886-1.886V7.54A1.888,1.888,0,0,1,47.74,5.654V16.6a3.772,3.772,0,0,0,3.772,3.772Z" transform="translate(-43.968)" fill="#236fb4"/>
      </g>
    </g>
  </g>
</svg>
