<svg xmlns="http://www.w3.org/2000/svg" width="20.34" height="23.028" viewBox="0 0 20.34 23.028">
  <path id="Subtraction_52" data-name="Subtraction 52" d="M15.694,23.028a4.625,4.625,0,0,1-4.409-3.384L9,21.023l-.017.006a.025.025,0,0,1-.013,0,.147.147,0,0,1-.032.015.338.338,0,0,1-.132.026.354.354,0,0,1-.132-.026.109.109,0,0,1-.03-.015l-.007,0,0,0-.012,0-.009,0L.187,15.949A.4.4,0,0,1,0,15.613V5.464a.062.062,0,0,1,0-.02.025.025,0,0,1,0-.006.029.029,0,0,0,0-.007.045.045,0,0,1,0-.007.04.04,0,0,0,0-.009.057.057,0,0,0,0-.02.43.43,0,0,1,.043-.128l0-.006h0l0,0a.421.421,0,0,1,.084-.094.107.107,0,0,1,.022-.018.013.013,0,0,0,.005,0l.006,0a.014.014,0,0,0,.005,0l.006,0h0L8.608.054A.4.4,0,0,1,8.8,0,.387.387,0,0,1,9,.054l8.423,5.074a.393.393,0,0,1,.186.336v8.625a4.791,4.791,0,0,1,2.731,4.5,4.422,4.422,0,0,1-3.368,4.253A4.621,4.621,0,0,1,15.694,23.028Zm-1.849-4.736a.6.6,0,0,0-.444.193.631.631,0,0,0,0,.875l.928.947a.612.612,0,0,0,.876,0l2.785-2.839a.646.646,0,0,0-.015-.894.61.61,0,0,0-.861,0l-2.347,2.393-.49-.5A.614.614,0,0,0,13.844,18.292ZM15.93,5.854a.387.387,0,0,1,.33.19.4.4,0,0,1-.134.535L9.186,10.762v6.412a.387.387,0,0,1-.384.39c-.109,0-.158.2-.158.391s.05.39.158.39a.387.387,0,0,1,.384.391V20l1.94-1.168a4.648,4.648,0,0,1-.026-.49,4.739,4.739,0,0,1,.152-1.207,4.548,4.548,0,0,1,5.59-3.321V5.688L14.291,4.148,6.622,8.77,8.8,10.085l6.932-4.177A.371.371,0,0,1,15.93,5.854ZM3.444,13.66a.387.387,0,0,0-.384.39V15.61a.384.384,0,1,0,.767,0V14.05A.387.387,0,0,0,3.444,13.66Zm-1.53-.78a.387.387,0,0,0-.384.39V14.83a.383.383,0,1,0,.765,0V13.27A.386.386,0,0,0,1.914,12.88ZM3.507,7.8h0v2.605L5.486,11.6V8.993L3.507,7.8ZM6.889,4.458a.387.387,0,0,1,.332.193.394.394,0,0,1-.137.533L3.878,7.118l1.992,1.2L13.537,3.7l-.713-.431L11.547,2.5,8.233,4.493a.358.358,0,0,1-.2.054.384.384,0,0,1-.33-.19.4.4,0,0,1,.135-.535l2.952-1.777L8.8.843,1.136,5.464l1.99,1.2L6.7,4.513A.356.356,0,0,1,6.889,4.458Z" fill="#236fb4"/>
</svg>
