<svg id="team_panle" data-name="team panle" xmlns="http://www.w3.org/2000/svg" width="19.481" height="16.525" viewBox="0 0 19.481 16.525">
  <g id="Group_10234" data-name="Group 10234" transform="translate(15.162 8.922)">
    <g id="Group_10233" data-name="Group 10233" transform="translate(0 0)">
      <g id="Path_36864" data-name="Path 36864" transform="translate(-398.494 -273.32)" fill="none">
        <path d="M400,273.32h-1.507a3.918,3.918,0,0,1,.237,1.347v5.694a1.679,1.679,0,0,1-.1.562h2.491a1.689,1.689,0,0,0,1.687-1.687v-3.1A2.815,2.815,0,0,0,400,273.32Z" stroke="none"/>
        <path d="M 399.7193603515625 274.3200073242188 C 399.7273864746094 274.4351501464844 399.7314147949219 274.5509033203125 399.7314147949219 274.6670837402344 L 399.7314147949219 279.9234008789063 L 401.1253356933594 279.9234008789063 C 401.5043334960938 279.9234008789063 401.8126525878906 279.6150817871094 401.8126525878906 279.2361145019531 L 401.8126525878906 276.1321105957031 C 401.8126525878906 275.1329040527344 400.9997253417969 274.3200073242188 400.0005187988281 274.3200073242188 L 399.7193603515625 274.3200073242188 M 398.4939270019531 273.3200073242188 L 400.0005187988281 273.3200073242188 C 401.5511169433594 273.3200073242188 402.8126525878906 274.58154296875 402.8126525878906 276.1321105957031 L 402.8126525878906 279.2361145019531 C 402.8126525878906 280.1664733886719 402.0557250976563 280.9234008789063 401.1253356933594 280.9234008789063 L 398.6346435546875 280.9234008789063 C 398.6970825195313 280.7474060058594 398.7314147949219 280.5581359863281 398.7314147949219 280.3609619140625 L 398.7314147949219 274.6670837402344 C 398.7314147949219 274.1941833496094 398.6475219726563 273.7404174804688 398.4939270019531 273.3200073242188 Z" stroke="none" fill="#236fb4"/>
      </g>
    </g>
  </g>
  <g id="Group_10236" data-name="Group 10236" transform="translate(0 8.922)">
    <g id="Group_10235" data-name="Group 10235" transform="translate(0 0)">
      <g id="Path_36865" data-name="Path 36865" transform="translate(0 -273.321)" fill="none">
        <path d="M4.081,274.668a3.919,3.919,0,0,1,.237-1.347H2.812A2.815,2.815,0,0,0,0,276.133v3.1a1.689,1.689,0,0,0,1.687,1.687H4.178a1.68,1.68,0,0,1-.1-.562Z" stroke="none"/>
        <path d="M 2.81213903427124 274.3210144042969 C 1.812919139862061 274.3210144042969 0.9999992847442627 275.1339416503906 0.9999992847442627 276.1331481933594 L 0.9999992847442627 279.2371826171875 C 0.9999992847442627 279.6161499023438 1.308319091796875 279.9244384765625 1.687289237976074 279.9244384765625 L 3.081239223480225 279.9244384765625 L 3.081239223480225 274.6680908203125 C 3.081239223480225 274.5519104003906 3.08526611328125 274.4361877441406 3.09329891204834 274.3210144042969 L 2.81213903427124 274.3210144042969 M 2.81213903427124 273.3210144042969 L 4.318699359893799 273.3210144042969 C 4.165139198303223 273.7414245605469 4.081239223480225 274.1951293945313 4.081239223480225 274.6680908203125 L 4.081239223480225 280.3619689941406 C 4.081239223480225 280.5591430664063 4.115559101104736 280.7483520507813 4.177999019622803 280.9244384765625 L 1.687289237976074 280.9244384765625 C 0.7568891048431396 280.9244384765625 -9.5367431640625e-07 280.1675109863281 -9.5367431640625e-07 279.2371826171875 L -9.5367431640625e-07 276.1331481933594 C -9.5367431640625e-07 274.5825500488281 1.261529207229614 273.3210144042969 2.81213903427124 273.3210144042969 Z" stroke="none" fill="#236fb4"/>
      </g>
    </g>
  </g>
  <g id="Group_10238" data-name="Group 10238" transform="translate(5.206 7.456)">
    <g id="Group_10237" data-name="Group 10237" transform="translate(0 0)">
      <path id="Path_36866" data-name="Path 36866" d="M143.085,234.815h-3.444a2.815,2.815,0,0,0-2.812,2.812v5.694a.562.562,0,0,0,.562.562h7.944a.562.562,0,0,0,.562-.562v-5.694A2.815,2.815,0,0,0,143.085,234.815Z" transform="translate(-136.829 -234.815)" fill="#236fb4"/>
    </g>
  </g>
  <g id="Group_10240" data-name="Group 10240" transform="translate(6.358 0)">
    <g id="Group_10239" data-name="Group 10239">
      <path id="Path_36867" data-name="Path 36867" d="M170.5,38.84a3.381,3.381,0,1,0,3.382,3.382A3.386,3.386,0,0,0,170.5,38.84Z" transform="translate(-167.114 -38.84)" fill="#236fb4"/>
    </g>
  </g>
  <g id="Group_10242" data-name="Group 10242" transform="translate(1.272 3.152)">
    <g id="Group_10241" data-name="Group 10241" transform="translate(0 0)">
      <g id="Path_36868" data-name="Path 36868" transform="translate(-33.443 -121.689)" fill="none">
        <path d="M35.972,121.689a2.528,2.528,0,1,0,2.529,2.529A2.532,2.532,0,0,0,35.972,121.689Z" stroke="none"/>
        <path d="M 35.97225189208984 122.6890029907227 C 35.12902069091797 122.6890029907227 34.44300079345703 123.3750228881836 34.44300079345703 124.2182540893555 C 34.44300079345703 125.0614852905273 35.12902069091797 125.7475051879883 35.97225189208984 125.7475051879883 C 36.18082046508789 125.7475051879883 36.38313293457031 125.7059478759766 36.57349014282227 125.6240158081055 C 36.89224243164063 125.4867706298828 37.15818023681641 125.2420959472656 37.32230377197266 124.9349975585938 C 37.44121170043945 124.712532043457 37.50150299072266 124.4713821411133 37.50150299072266 124.2182540893555 C 37.50150299072266 123.3750228881836 36.81548309326172 122.6890029907227 35.97225189208984 122.6890029907227 M 35.97225189208984 121.6890029907227 C 37.36691284179688 121.6890029907227 38.50150299072266 122.8236312866211 38.50150299072266 124.2182540893555 C 38.50150299072266 124.6474761962891 38.39371109008789 125.051887512207 38.20423126220703 125.4063873291016 C 37.93428039550781 125.9114761352539 37.49802017211914 126.3147125244141 36.96892166137695 126.5425033569336 C 36.66290283203125 126.6742248535156 36.32603073120117 126.7475051879883 35.97225189208984 126.7475051879883 C 34.57759094238281 126.7475051879883 33.44300079345703 125.612907409668 33.44300079345703 124.2182540893555 C 33.44300079345703 122.8235931396484 34.57759094238281 121.6890029907227 35.97225189208984 121.6890029907227 Z" stroke="none" fill="#236fb4"/>
      </g>
    </g>
  </g>
  <g id="Group_10244" data-name="Group 10244" transform="translate(13.15 3.152)">
    <g id="Group_10243" data-name="Group 10243" transform="translate(0 0)">
      <g id="Path_36869" data-name="Path 36869" transform="translate(-345.607 -121.689)" fill="none">
        <path d="M348.136,121.689a2.529,2.529,0,1,0,2.529,2.529A2.532,2.532,0,0,0,348.136,121.689Z" stroke="none"/>
        <path d="M 348.13623046875 122.6890029907227 C 347.2929992675781 122.6890029907227 346.6069946289063 123.3750228881836 346.6069946289063 124.2182540893555 C 346.6069946289063 124.4714126586914 346.6672668457031 124.7125625610352 346.7861938476563 124.9350509643555 C 346.9502868652344 125.2421264648438 347.2162170410156 125.4867858886719 347.534912109375 125.6239776611328 C 347.725341796875 125.7059478759766 347.9276733398438 125.7475051879883 348.13623046875 125.7475051879883 C 348.9794616699219 125.7475051879883 349.6654663085938 125.0614852905273 349.6654663085938 124.2182540893555 C 349.6654663085938 123.3750228881836 348.9794616699219 122.6890029907227 348.13623046875 122.6890029907227 M 348.13623046875 121.6890029907227 C 349.5308837890625 121.6890029907227 350.6654663085938 122.8235931396484 350.6654663085938 124.2182540893555 C 350.6654663085938 125.612907409668 349.5308837890625 126.7475051879883 348.13623046875 126.7475051879883 C 347.782470703125 126.7475051879883 347.4455871582031 126.6742248535156 347.1395568847656 126.5425033569336 C 346.6104431152344 126.3147430419922 346.1741943359375 125.9115142822266 345.9042358398438 125.4063873291016 C 345.7147827148438 125.0519256591797 345.6069946289063 124.6475143432617 345.6069946289063 124.2182540893555 C 345.6069946289063 122.8235931396484 346.7415771484375 121.6890029907227 348.13623046875 121.6890029907227 Z" stroke="none" fill="#236fb4"/>
      </g>
    </g>
  </g>
</svg>
