<svg xmlns="http://www.w3.org/2000/svg" width="22" height="22" viewBox="0 0 27 27">
  <g id="Group_10289" data-name="Group 10289" transform="translate(-323 -368)">
    <rect id="Rectangle_1419" data-name="Rectangle 1419" width="27" height="27" rx="5" transform="translate(323 368)" fill="#fee"/>
    <g id="delete_2_" data-name="delete(2)" transform="translate(331 374)">
      <path id="Path_36880" data-name="Path 36880" d="M10.072,1.789h-1.7V1.7A1.7,1.7,0,0,0,6.677,0H4.323a1.7,1.7,0,0,0-1.7,1.7v.089H.927A.928.928,0,0,0,0,2.717v.707a.309.309,0,0,0,.309.309H10.691A.309.309,0,0,0,11,3.424V2.717a.927.927,0,0,0-.928-.928ZM3.55,1.7A.774.774,0,0,1,4.323.928H6.677A.774.774,0,0,1,7.45,1.7v.089H3.55Zm0,0" fill="#f85e5e"/>
      <path id="Path_36881" data-name="Path 36881" d="M12.949,150.738l.749,10.738a.464.464,0,0,0,.463.432h7.775a.464.464,0,0,0,.463-.432l.749-10.738Zm3.264,9.592h-.02a.464.464,0,0,1-.463-.444l-.309-7.266a.464.464,0,1,1,.927-.039l.309,7.266A.464.464,0,0,1,16.213,160.33Zm2.3-.463a.464.464,0,0,1-.928,0V152.6a.464.464,0,0,1,.928,0Zm1.855.02a.464.464,0,0,1-.463.444h-.02a.464.464,0,0,1-.444-.483l.309-7.266a.464.464,0,0,1,.927.039Zm0,0" transform="translate(-12.549 -146.077)" fill="#f85e5e"/>
    </g>
  </g>
</svg>
