<svg xmlns="http://www.w3.org/2000/svg" width="23" height="22" viewBox="0 0 23 22">
  <path id="Union_65" data-name="Union 65" d="M6429.572-9748.3a3.292,3.292,0,0,1,3.284-3.3,3.289,3.289,0,0,1,3.1,2.214,1.183,1.183,0,0,1,.187-.016h8.751a1.1,1.1,0,0,1,1.1,1.1,1.1,1.1,0,0,1-1.1,1.1h-8.751a1.069,1.069,0,0,1-.187-.016,3.287,3.287,0,0,1-3.105,2.215A3.291,3.291,0,0,1,6429.572-9748.3Zm-5.471,1.1a1.1,1.1,0,0,1-1.1-1.1,1.1,1.1,0,0,1,1.1-1.1h2.179a1.1,1.1,0,0,1,1.1,1.1,1.1,1.1,0,0,1-1.1,1.1Zm0-7.7a1.1,1.1,0,0,1-1.1-1.1,1.1,1.1,0,0,1,1.1-1.1h20.8a1.1,1.1,0,0,1,1.1,1.1,1.1,1.1,0,0,1-1.1,1.1Zm8.938-7.718a1.074,1.074,0,0,1-.187.017h-8.75a1.1,1.1,0,0,1-1.1-1.1,1.1,1.1,0,0,1,1.1-1.1h8.75a1.172,1.172,0,0,1,.187.016,3.289,3.289,0,0,1,3.105-2.217,3.293,3.293,0,0,1,3.285,3.3,3.291,3.291,0,0,1-3.285,3.3A3.287,3.287,0,0,1,6433.039-9762.616Zm9.682.017a1.1,1.1,0,0,1-1.1-1.1,1.1,1.1,0,0,1,1.1-1.1h2.179a1.1,1.1,0,0,1,1.1,1.1,1.1,1.1,0,0,1-1.1,1.1Z" transform="translate(-6423 9767)" fill="#fff"/>
</svg>
