<?xml version="1.0"?>
<svg xmlns="http://www.w3.org/2000/svg" xmlns:xlink="http://www.w3.org/1999/xlink" version="1.1" id="Capa_1" x="0px" y="0px" viewBox="0 0 508.013 508.013" style="enable-background:new 0 0 508.013 508.013;" xml:space="preserve" width="20.34" height="23.028"><g><g>
	<g>
		<path d="M298.1,172.506c5-5.7,8.1-13,8.1-21.2c0-17.9-14.6-32.5-32.5-32.5c-17.9,0-32.5,14.6-32.5,32.5c0,8.1,3.1,15.5,8.1,21.2    c-6.2,2.7-12,6.4-17.1,11c-4.6-2.6-9.4-4.7-14.4-6.5c9.5-8.3,15.6-20.5,15.6-34.2c0-25-20.3-45.3-45.4-45.3    c-25.1,0-45.3,20.3-45.3,45.3c0,13.6,6.1,25.8,15.6,34.2c-5,1.8-9.8,3.9-14.4,6.5c-5.1-4.6-10.8-8.3-17.1-11    c5-5.7,8.1-13.1,8.1-21.2c0-17.9-14.6-32.5-32.5-32.5c-17.9,0-32.5,14.6-32.5,32.5c0,8.1,3.1,15.5,8.1,21.2    c-21.9,9.5-37.2,31.2-37.2,56.5h16.4c0-25,20.3-45.3,45.2-45.3c10,0,19.7,3.4,27.5,9.4c-19.5,16.5-31.9,41.1-31.9,68.6h16.4    c0-40.6,33-73.6,73.6-73.6c40.6,0,73.6,33,73.6,73.6H278c0-27.5-12.4-52.1-31.8-68.6c7.8-6,17.5-9.4,27.5-9.4    c24.9,0,45.2,20.3,45.2,45.3h16.4C335.3,203.706,320,181.906,298.1,172.506z M102.5,167.406c-8.9,0-16.1-7.3-16.1-16.1    c0-8.9,7.2-16.1,16.1-16.1s16.1,7.2,16.1,16.1S111.4,167.406,102.5,167.406z M188.1,171.806c-16,0-29-13.1-29-29c0-16,13-29,29-29    s29,13,29,29S204.1,171.806,188.1,171.806z M273.7,167.406c-8.9,0-16.1-7.3-16.1-16.1c0-8.9,7.2-16.1,16.1-16.1    c8.9,0,16.1,7.2,16.1,16.1S282.6,167.406,273.7,167.406z" data-original="#000000" class="active-path" data-old_color="#000000" fill="#045589"/>
	</g>
</g><g>
	<g>
		<path d="M491.2,410.306l-104.9-104.9l-15.5,15.5l-27.2-27.2c20.5-30.1,32.6-66.5,32.6-105.6c0-103.7-84.4-188.1-188.1-188.1    S0,84.406,0,188.106s84.4,188.1,188.1,188.1c39.1,0,75.5-12,105.6-32.6l27.2,27.2l-15.5,15.5l104.9,104.9    c10.8,10.8,25.2,16.8,40.5,16.8s29.7-6,40.5-16.8C513.6,468.906,513.6,432.606,491.2,410.306z M296.1,321.406    c-29.5,24-67.1,38.4-108,38.4c-94.7,0-171.7-77-171.7-171.7s77-171.7,171.7-171.7s171.7,77,171.7,171.7c0,40.9-14.4,78.5-38.4,108    c-0.4,0.6-0.9,1.1-1.3,1.7c-6.7,8.1-14.2,15.6-22.3,22.3C297.3,320.606,296.7,321.006,296.1,321.406z M479.7,479.706    c-7.7,7.7-18,12-28.9,12c-10.9,0-21.2-4.3-28.9-12l-93.3-93.3l15.5-15.5l-37-37c0.4-0.4,0.8-0.8,1.2-1.1c3.8-3.2,7.5-6.5,11.1-10    c1.1-1.1,2.3-2.2,3.4-3.4c3.5-3.6,6.8-7.2,10-11c0.4-0.4,0.8-0.8,1.1-1.2l37,37l15.5-15.5l93.3,93.3    C495.6,437.806,495.6,463.706,479.7,479.706z" data-original="#000000" class="active-path" data-old_color="#000000" fill="#045589"/>
	</g>
</g><g>
	<g>
		<rect x="428.196" y="427.625" transform="matrix(0.7071 -0.7071 0.7071 0.7071 -180.3576 436.2286)" width="16.4" height="16.4" data-original="#000000" class="active-path" data-old_color="#000000" fill="#045589"/>
	</g>
</g><g>
	<g>
		<rect x="405.103" y="404.453" transform="matrix(0.7068 -0.7074 0.7074 0.7068 -170.7359 413.3615)" width="16.4" height="16.4" data-original="#000000" class="active-path" data-old_color="#000000" fill="#045589"/>
	</g>
</g><g>
	<g>
		<rect x="382.015" y="381.372" transform="matrix(0.7071 -0.7071 0.7071 0.7071 -161.1777 390.0266)" width="16.4" height="16.4" data-original="#000000" class="active-path" data-old_color="#000000" fill="#045589"/>
	</g>
</g></g> </svg>
