<svg xmlns="http://www.w3.org/2000/svg" width="40" height="40" viewBox="0 0 28.546 25.703">
  <g id="Group_10362" data-name="Group 10362" transform="translate(-318.24 -140.297)">
    <path id="Path_36887" data-name="Path 36887" d="M9.2,17.874H3.646a.868.868,0,0,1-.868-.868V7.292H.868A.868.868,0,0,1,.254,5.81L5.81.254a.868.868,0,0,1,1.228,0L12.594,5.81a.868.868,0,0,1-.614,1.482H10.07v9.713a.868.868,0,0,1-.868.868Z" transform="translate(318.24 166) rotate(-90)" fill="#236fb4"/>
    <path id="Path_36888" data-name="Path 36888" d="M6.424,17.877a.865.865,0,0,1-.614-.254L.254,12.066a.868.868,0,0,1,.614-1.482h1.91V.868A.868.868,0,0,1,3.646,0H9.2a.868.868,0,0,1,.868.868v9.716h1.91a.868.868,0,0,1,.614,1.482L7.038,17.623A.865.865,0,0,1,6.424,17.877Z" transform="translate(328.909 153.146) rotate(-90)" fill="#236fb4"/>
  </g>
</svg>
