<svg xmlns="http://www.w3.org/2000/svg" width="18" height="23.193" viewBox="0 0 18 23.193">
  <g id="database" transform="translate(-140.051 0.285)">
    <g id="Path_36921" data-name="Path 36921" transform="translate(-0.112 -262.837)" fill="none">
      <path d="M143.083,273.582a19.606,19.606,0,0,0,12.272,0c1.538-.6,2.083-1.266,2.083-1.653V269a8.542,8.542,0,0,1-1.719.888,20.257,20.257,0,0,1-13,0A8.483,8.483,0,0,1,141,269v2.929C141,272.318,141.546,272.982,143.083,273.582Z" stroke="none"/>
      <path d="M 149.2191925048828 273.56689453125 C 151.4301147460938 273.56689453125 153.4799499511719 273.2414855957031 154.9917907714844 272.6503601074219 C 155.9871520996094 272.2620239257813 156.3396606445313 271.91552734375 156.4384155273438 271.79638671875 L 156.4384155273438 270.6737670898438 C 156.3223724365234 270.7236328125 156.2040863037109 270.7721252441406 156.083740234375 270.8191223144531 C 154.205078125 271.5550537109375 151.7671966552734 271.9603576660156 149.2191925048828 271.9603576660156 C 146.6737823486328 271.9603576660156 144.2363128662109 271.5560913085938 142.3554840087891 270.8218688964844 C 142.2346954345703 270.774658203125 142.1161804199219 270.7261047363281 142 270.6762084960938 L 142 271.7980346679688 C 142.0992584228516 271.9171447753906 142.4523315429688 272.2624206542969 143.4472808837891 272.650634765625 C 144.9584503173828 273.2414855957031 147.0082855224609 273.56689453125 149.2191925048828 273.56689453125 M 149.2191925048828 274.56689453125 C 146.8856964111328 274.56689453125 144.7080688476563 274.2173156738281 143.0831298828125 273.5819702148438 C 141.5455932617188 272.9820556640625 141 272.3184204101563 141 271.9310302734375 L 141 269.0023498535156 C 141.4841766357422 269.3353576660156 142.0604553222656 269.6329650878906 142.7194213867188 269.8904418945313 C 144.4860687255859 270.580078125 146.7935943603516 270.9603576660156 149.2191925048828 270.9603576660156 C 151.6448059082031 270.9603576660156 153.9523468017578 270.580078125 155.718994140625 269.8880310058594 C 156.3779296875 269.6306457519531 156.9518737792969 269.3330078125 157.4384155273438 269 L 157.4384155273438 271.9286499023438 C 157.4384155273438 272.3160705566406 156.8928833007813 272.9820556640625 155.3552703857422 273.5819702148438 C 153.7303314208984 274.2173156738281 151.5527038574219 274.56689453125 149.2191925048828 274.56689453125 Z" stroke="none" fill="#236fb4"/>
    </g>
    <g id="Path_36922" data-name="Path 36922" transform="translate(-0.112 -496.974)" fill="none">
      <path d="M143.083,513.25a12.888,12.888,0,0,0,2.145.612,21.534,21.534,0,0,0,7.983,0,12.894,12.894,0,0,0,2.145-.612c1.538-.6,2.083-1.266,2.083-1.653v-2.8a8.827,8.827,0,0,1-1.4.68,21.483,21.483,0,0,1-13.647,0,8.929,8.929,0,0,1-1.4-.68v2.8C141,511.984,141.546,512.647,143.083,513.25Z" stroke="none"/>
      <path d="M 149.2191925048828 513.234619140625 C 150.5473480224609 513.234619140625 151.8596649169922 513.1123046875 153.0128173828125 512.8812255859375 C 153.7567901611328 512.7310180664063 154.4219665527344 512.5418090820313 154.9918060302734 512.3181762695313 C 155.9871520996094 511.9298095703125 156.3396606445313 511.583251953125 156.4384307861328 511.464111328125 L 156.4384307861328 510.3990478515625 C 156.4278106689453 510.4032592773438 156.4171600341797 510.4074401855469 156.4065093994141 510.41162109375 C 154.4573669433594 511.1732177734375 151.9048767089844 511.5926208496094 149.2191925048828 511.5926208496094 C 146.5335845947266 511.5926208496094 143.9810943603516 511.1732177734375 142.031005859375 510.4112548828125 C 142.0206604003906 510.4072265625 142.0103149414063 510.4031372070313 142.0000152587891 510.3990783691406 L 142.0000152587891 511.4641418457031 C 142.1001281738281 511.5838928222656 142.4543609619141 511.9294738769531 143.4485778808594 512.3189086914063 C 144.0161895751953 512.541748046875 144.6813507080078 512.73095703125 145.4242095947266 512.8809204101563 C 146.5787811279297 513.1123046875 147.8910675048828 513.234619140625 149.2191925048828 513.234619140625 M 149.2191925048828 514.234619140625 C 147.8020935058594 514.234619140625 146.4416961669922 514.104736328125 145.2277221679688 513.8614501953125 C 144.4435729980469 513.703125 143.7208404541016 513.5001220703125 143.0831298828125 513.249755859375 C 141.5455932617188 512.6474609375 141.0000152587891 511.9837341308594 141.0000152587891 511.5987243652344 L 141.0000152587891 508.7999572753906 C 141.4062347412109 509.0480041503906 141.8715515136719 509.2747497558594 142.3958435058594 509.4801940917969 C 144.2333679199219 510.1981506347656 146.6566314697266 510.5926208496094 149.2191925048828 510.5926208496094 C 151.7818145751953 510.5926208496094 154.205078125 510.1981506347656 156.0425720214844 509.4801940917969 C 156.56689453125 509.2747497558594 157.0345458984375 509.0480041503906 157.4384307861328 508.7999572753906 L 157.4384307861328 511.5964050292969 C 157.4384307861328 511.9837341308594 156.8928833007813 512.6498413085938 155.3552703857422 513.249755859375 C 154.7175750732422 513.5000610351563 153.994873046875 513.703125 153.2107543945313 513.8614501953125 C 151.9967498779297 514.104736328125 150.6363372802734 514.234619140625 149.2191925048828 514.234619140625 Z" stroke="none" fill="#236fb4"/>
    </g>
    <path id="Path_36923" data-name="Path 36923" d="M149.219,748.453c4.54,0,8.219-1.438,8.219-3.212V742.9a8.651,8.651,0,0,1-1.266.628l-.13.052a21.44,21.44,0,0,1-13.647,0c-.045-.017-.087-.035-.13-.052A8.651,8.651,0,0,1,141,742.9v2.341C141,747.014,144.68,748.453,149.219,748.453Z" transform="translate(-0.112 -725.545)" fill="#236fb4"/>
    <ellipse id="Ellipse_362" data-name="Ellipse 362" cx="9" cy="3" rx="9" ry="3" transform="translate(140.051 -0.285)" fill="#236fb4"/>
  </g>
</svg>
