<svg xmlns="http://www.w3.org/2000/svg" width="20.68" height="18.615" viewBox="0 0 20.68 18.615">
  <g id="box_4_" data-name="box(4)" transform="translate(0 -25.552)">
    <path id="Path_36905" data-name="Path 36905" d="M20.1,263.316a1.968,1.968,0,0,0-2.718-.066l-2.628,2.387a1.972,1.972,0,0,0-1.808-1.19H9.64a4.253,4.253,0,0,0-5.456-.515,1.739,1.739,0,0,0-1.613-1.094H0v8.935H2.571a1.74,1.74,0,0,0,1.668-1.253l2.752.93h7.566l5.52-5.324a1.97,1.97,0,0,0,.026-2.811ZM3.1,270.037a.526.526,0,0,1-.525.525H1.212V264.05h1.36a.526.526,0,0,1,.525.525Zm16.139-4.782-5.168,4.984H7.19l-2.882-.974v-3.829a3.042,3.042,0,0,1,4.607.012l.181.211h3.852a.757.757,0,1,1,0,1.515H9.492v1.212h3.457a1.971,1.971,0,0,0,1.74-1.05l3.51-3.188a.758.758,0,0,1,1.036,1.107Z" transform="translate(0 -227.606)" fill="#236fb4"/>
    <path id="Path_36906" data-name="Path 36906" d="M200.706,25.552h-8.882v8.882h8.882Zm-5.123,1.212h1.365V28.2h-1.365Zm3.911,6.458h-6.458V26.764h1.335v2.648h3.788V26.764h1.335Z" transform="translate(-184.076 0)" fill="#236fb4"/>
  </g>
</svg>
