<svg xmlns="http://www.w3.org/2000/svg" width="18.68" height="19.979" viewBox="0 0 18.68 19.979">
  <g id="Page-1" transform="translate(-0.866)">
    <g id="_042---Chat-Settings" data-name="042---Chat-Settings" transform="translate(0.866 0)">
      <path id="Shape" d="M18.128,11.634V8.344l1.26-1.532a.688.688,0,0,0,.064-.781l-1.2-2.072a.688.688,0,0,0-.709-.335l-1.957.326L12.742,2.3l-.7-1.856A.688.688,0,0,0,11.4,0H9.01a.688.688,0,0,0-.645.447l-.7,1.859L4.819,3.952,2.863,3.626a.688.688,0,0,0-.709.335L.958,6.029a.688.688,0,0,0,.064.781l1.26,1.532v3.292l-1.26,1.532a.688.688,0,0,0-.064.782l1.2,2.071a.688.688,0,0,0,.709.335l1.957-.326,2.85,1.645.7,1.859a.688.688,0,0,0,.645.447H11.4a.688.688,0,0,0,.645-.447l.7-1.859,2.85-1.645,1.957.326a.688.688,0,0,0,.709-.335l1.2-2.071a.688.688,0,0,0-.064-.782Zm-7.923,4.544a6.19,6.19,0,1,1,6.19-6.19,6.19,6.19,0,0,1-6.19,6.19Z" transform="translate(-0.866 0)" fill="#236fb4"/>
      <path id="Subtraction_60" data-name="Subtraction 60" d="M4.5,9A4.5,4.5,0,1,1,9,4.5,4.5,4.5,0,0,1,4.5,9Zm0-6.748A2.249,2.249,0,1,0,6.75,4.5,2.251,2.251,0,0,0,4.5,2.252Z" transform="translate(5 5.609)" fill="#236fb4"/>
    </g>
  </g>
</svg>
